<svg width="78" height="72" viewBox="0 0 78 72" fill="none" xmlns="http://www.w3.org/2000/svg">
<g clip-path="url(#clip0_0_748)">
<rect width="78" height="72" rx="36" fill="#F1DDC4"/>
<path d="M28.9446 42.9341C28.3559 43.5169 28.3512 44.4667 28.9341 45.0554C29.5169 45.6441 30.4667 45.6488 31.0554 45.0659L28.9446 42.9341ZM48.6702 27.0074C48.6743 26.179 48.0061 25.5041 47.1777 25.5L33.6779 25.4327C32.8494 25.4286 32.1745 26.0968 32.1704 26.9252C32.1663 27.7537 32.8345 28.4286 33.6629 28.4327L45.6628 28.4924L45.603 40.4923C45.5989 41.3207 46.2671 41.9956 47.0955 41.9997C47.9239 42.0039 48.5989 41.3357 48.603 40.5072L48.6702 27.0074ZM31.0554 45.0659L48.2256 28.0659L46.1149 25.934L28.9446 42.9341L31.0554 45.0659Z" fill="#0CAD8E"/>
</g>
<defs>
<clipPath id="clip0_0_748">
<rect width="78" height="72" rx="36" fill="white"/>
</clipPath>
</defs>
</svg>
