<svg width="921" height="624" viewBox="0 0 921 624" fill="none" xmlns="http://www.w3.org/2000/svg">
<path d="M5.02593 281.727C13.3353 272.562 28.2801 275.235 33.2462 286.593C45.6244 314.903 59.7261 341.929 79.6843 364.371C102.018 389.449 131.328 404.071 168.67 405.609C184.127 406.234 199.961 404.28 216.266 399.796C267.815 385.683 315.843 358.324 362.136 323.384C409.118 287.927 452.947 248.071 496.755 208.085C547.132 162.115 597.614 116.241 652.384 76.7669C684.564 53.5689 717.683 33.4121 752.666 19.1403C778.136 8.75244 803.35 2.42277 828.481 0.568602C866.747 -2.26484 896.281 10.1921 919.798 33.6879C941.235 55.0984 954.167 82.7195 961.744 114.252C972.938 160.784 973.207 210.537 961.241 263.684C941.943 349.387 906.507 431.808 851.4 509.863C828.648 542.088 803.808 572.847 772.089 596.54C760.533 605.18 747.756 612.703 735.148 617.939C707.1 629.596 685.013 622.208 674.018 599.539C663.367 577.555 663.139 551.594 667.126 524.046C667.642 520.522 667.95 516.955 669.039 513.437C669.701 511.304 671.362 508.493 673.106 507.386C674.415 506.548 677.448 507.212 678.265 508.439C682.308 514.503 686.465 520.56 689.435 527.383C694.728 539.584 698.388 552.92 704.173 564.758C714.874 586.566 726.927 587.483 752.395 569.73C769.385 557.881 783.934 542.949 797.234 526.839C875.557 431.969 919.013 329.536 931.643 221.493C937.46 171.828 930.775 126.643 910.282 88.1131C900.946 70.5504 887.626 56.9678 870.958 46.8742C856.677 38.2216 839.786 35.6204 821.264 36.5595C785.683 38.3705 750.245 50.7096 714.975 69.196C670.1 92.7032 628.531 123.636 588.867 157.79C539.013 200.686 490.079 244.94 440.627 288.426C398.849 325.161 355.782 359.609 309.074 387.213C279.19 404.888 248.515 418.139 217.314 427.469C163.849 443.457 119.58 435.179 82.2096 409.194C53.952 389.541 35.368 360.712 17.7171 331.034C12.3991 322.1 8.07107 312.477 3.03144 303.341C-0.80112 296.392 -0.295116 287.596 5.02593 281.727Z" fill="url(#paint0_linear_0_737)"/>
<defs>
<linearGradient id="paint0_linear_0_737" x1="1004" y1="480.5" x2="26.1662" y2="327.322" gradientUnits="userSpaceOnUse">
<stop stop-color="#FCFCFC"/>
<stop offset="1" stop-color="#FCFCFC" stop-opacity="0"/>
</linearGradient>
</defs>
</svg>
