<svg width="70" height="69" viewBox="0 0 70 69" fill="none" xmlns="http://www.w3.org/2000/svg">
<g opacity="0.7">
<rect x="69.4307" y="68.5625" width="69.4304" height="68.5625" rx="34.2812" transform="rotate(-180 69.4307 68.5625)" fill="white"/>
<path d="M34.9578 27.6684C35.114 27.6665 35.2688 27.6973 35.4124 27.7588C35.556 27.8204 35.685 27.9113 35.7914 28.0257L46.509 38.7433C46.9853 39.2196 46.9853 39.9579 46.509 40.4343C46.0326 40.9106 45.2943 40.9106 44.818 40.4343L34.934 30.5503L25.0738 40.4104C24.5975 40.8868 23.8591 40.8868 23.3828 40.4104C22.9065 39.9341 22.9065 39.1958 23.3828 38.7194L34.1004 28.0019C34.3386 27.7637 34.6482 27.6446 34.934 27.6446L34.9578 27.6684Z" fill="black"/>
</g>
</svg>
