<svg width="68" height="24" viewBox="0 0 68 24" fill="none" xmlns="http://www.w3.org/2000/svg">
<path d="M0.81 5.418H9.738V8.1H3.996V10.458H8.19V12.96H3.996V15.318H9.738V18H0.81V5.418ZM11.0953 5.418H14.2453L18.8713 12.906V5.418H22.0573V18H18.9253L14.2813 10.494V18H11.0953V5.418Z" fill="black"/>
<path d="M39.5 10.25L36 13.75L32.5 10.25" stroke="black" stroke-width="1.5" stroke-linecap="round" stroke-linejoin="round"/>
<path d="M58.5 2.43506C56.6211 2.43506 54.7844 2.99602 53.2221 4.04701C51.6598 5.098 50.4422 6.59181 49.7231 8.33954C49.0041 10.0873 48.816 12.0104 49.1825 13.8658C49.5491 15.7212 50.4539 17.4255 51.7825 18.7631C53.1111 20.1008 54.8038 21.0117 56.6466 21.3808C58.4895 21.7499 60.3996 21.5604 62.1355 20.8365C63.8714 20.1126 65.3551 18.8866 66.399 17.3137C67.4428 15.7408 68 13.8916 68 11.9998C67.997 9.464 66.9952 7.0329 65.2142 5.2398C63.4333 3.44671 61.0187 2.43804 58.5 2.43506ZM66.0972 8.43648H62.355C61.9477 6.73582 61.205 5.13496 60.1709 3.72911C61.4546 3.99473 62.659 4.55866 63.6879 5.37595C64.7169 6.19324 65.5419 7.24127 66.0972 8.43648ZM66.8824 11.9998C66.883 12.8257 66.7628 13.6472 66.5256 14.4379H62.585C62.8508 12.8235 62.8508 11.1761 62.585 9.56174H66.5256C66.7628 10.3524 66.883 11.1739 66.8824 11.9998ZM58.5 20.4393C58.4768 20.4394 58.4538 20.4346 58.4326 20.425C58.4114 20.4155 58.3925 20.4015 58.3771 20.384C57.1775 19.0834 56.2964 17.4133 55.799 15.5632H61.201C60.7036 17.4133 59.8226 19.0834 58.6229 20.384C58.6075 20.4015 58.5886 20.4155 58.5674 20.425C58.5462 20.4346 58.5232 20.4394 58.5 20.4393ZM55.5485 14.4379C55.2616 12.8253 55.2616 11.1743 55.5485 9.56174H61.4515C61.7384 11.1743 61.7384 12.8253 61.4515 14.4379H55.5485ZM50.1177 11.9998C50.117 11.1739 50.2372 10.3524 50.4744 9.56174H54.415C54.1492 11.1761 54.1492 12.8235 54.415 14.4379H50.4744C50.2372 13.6472 50.117 12.8257 50.1177 11.9998ZM58.5 3.56032C58.5232 3.5602 58.5462 3.56507 58.5674 3.57461C58.5886 3.58415 58.6075 3.59814 58.6229 3.61565C59.8226 4.91627 60.7036 6.58635 61.201 8.43648H55.799C56.2964 6.58635 57.1775 4.91627 58.3771 3.61565C58.3925 3.59814 58.4114 3.58415 58.4326 3.57461C58.4538 3.56507 58.4768 3.5602 58.5 3.56032ZM56.8291 3.72911C55.795 5.13496 55.0523 6.73582 54.6451 8.43648H50.9028C51.4581 7.24127 52.2832 6.19324 53.3121 5.37595C54.341 4.55866 55.5454 3.99473 56.8291 3.72911ZM50.9028 15.5632H54.6451C55.0523 17.2638 55.795 18.8647 56.8291 20.2705C55.5454 20.0049 54.341 19.441 53.3121 18.6237C52.2832 17.8064 51.4581 16.7584 50.9028 15.5632ZM60.1709 20.2705C61.205 18.8647 61.9477 17.2638 62.355 15.5632H66.0972C65.5419 16.7584 64.7169 17.8064 63.6879 18.6237C62.659 19.441 61.4546 20.0049 60.1709 20.2705Z" fill="black"/>
</svg>
