<svg width="109" height="84" viewBox="0 0 109 84" fill="none" xmlns="http://www.w3.org/2000/svg">
<path d="M43.247 55.5716C42.7463 54.4467 42.1936 53.3408 41.7543 52.1923C39.7136 46.861 37.4319 41.5534 36.8745 35.8393C35.8636 25.4886 38.9483 16.4236 47.3947 10.1092C57.2487 2.74093 68.5106 -0.822704 80.9581 0.160367C85.1435 0.491209 89.1446 1.59717 92.9332 3.44042C102.981 8.32743 108.125 16.4992 108.905 27.4926C109.59 37.1673 106.543 45.807 101.002 53.5818C95.314 61.5598 88.1667 68.0301 79.5598 72.7186C68.6334 78.6738 57.0314 82.6486 44.5272 83.5655C38.2397 84.0287 31.99 83.7404 25.9197 81.8168C16.3727 78.7919 9.21125 72.8651 4.59599 63.956C3.1174 61.1014 1.77578 58.1711 0.43419 55.2455C-0.510593 53.1895 0.136592 51.1809 1.88916 50.4057C3.66536 49.6212 5.58327 50.4057 6.49498 52.4948C8.03498 56.0159 9.96707 59.277 12.2912 62.3397C18.5504 70.5871 27.0488 74.5288 37.1532 75.337C43.9084 75.8758 50.5172 74.9825 56.9559 72.8888C69.2805 68.8809 80.0605 62.4531 88.6769 52.6176C93.4953 47.1162 97.0949 41.024 98.1484 33.6604C98.8239 28.9483 98.1909 24.378 96.2068 20.0723C93.8874 15.0388 89.7493 11.8722 84.6805 10.0005C77.8025 7.45779 70.8158 7.765 63.9756 10.1187C60.6688 11.2577 57.4282 12.7371 54.3908 14.4716C45.746 19.4153 41.8252 27.9605 43.4077 37.7818C43.9462 41.128 44.6264 44.46 44.9855 47.8299C45.1839 49.6732 44.9288 51.5873 44.6973 53.4447C44.6028 54.2151 44.0501 54.9288 43.7053 55.6661C43.5541 55.6425 43.3982 55.6047 43.247 55.5716Z" fill="#0CAD8E"/>
<path d="M85.6423 26.3427C85.5951 27.7592 85.0209 29.1797 83.4399 29.7385C81.2139 30.5254 79.503 32.0128 77.7214 33.4333C77.0253 33.9881 76.3528 34.5902 75.6134 35.0781C73.9577 36.1759 72.3216 35.8179 71.1024 34.2636C70.6069 33.6301 69.9658 33.1028 69.3444 32.5794C68.3612 31.7571 67.2442 31.0763 66.3515 30.1674C64.6485 28.4439 64.6328 26.201 66.2492 24.3949C67.1498 23.3876 68.2078 22.518 69.1399 21.5342C70.6816 19.9052 72.239 18.288 73.6745 16.5684C75.2713 14.6521 77.9692 14.0698 80.1126 15.5453C81.1706 16.2733 82.0791 17.3082 82.8381 18.3588C84.3523 20.4521 85.6305 24.2493 85.6423 26.3427ZM75.0156 24.3674C74.4925 25.0402 74.1229 25.6147 73.6588 26.0948C72.3019 27.5035 72.2862 27.4916 73.6863 28.8807C73.7335 28.9279 73.8082 28.9397 73.9695 29.0144C74.8819 28.2157 75.8219 27.3893 76.8208 26.5119C76.2623 25.8508 75.7904 25.2881 75.0156 24.3674Z" fill="#F1DDC4"/>
</svg>
