<svg width="90" height="142" viewBox="0 0 90 142" fill="none" xmlns="http://www.w3.org/2000/svg">
<path d="M1.34385 85.1415C0.936 73.6738 0.677351 62.196 0.0904395 50.7382C-0.586001 37.2994 2.35851 32.9691 14.8329 28.0216C37.0858 19.1918 59.2293 10.0733 81.3926 1.01459C86.6152 -1.11571 89.679 0.0290758 91.957 5.20551C92.2157 5.79283 92.8026 6.41002 93.3795 6.64893C98.612 8.75932 100.97 13.01 101.557 18.2163C102.253 24.4081 102.193 30.6895 102.979 36.8713C104.551 49.245 106.491 61.5689 108.261 73.9127C109.763 84.385 107.048 89.9397 97.0105 93.2148C76.2099 99.9939 56.5832 109.331 37.1455 119.177C31.5847 121.994 25.8748 124.522 20.1449 126.981C17.857 127.967 15.3701 128.813 12.913 129.042C7.0936 129.589 2.09987 125.956 0.746988 120.053C0.0506525 117.016 -0.0388776 113.781 0.030756 110.635C0.219761 102.134 0.647533 93.6428 0.985753 85.1515C1.10512 85.1515 1.22448 85.1415 1.34385 85.1415ZM78.866 17.0416C78.0701 17.3203 77.3837 17.4796 76.767 17.7783C58.4832 26.847 40.2093 35.9356 21.9156 44.9844C20.5428 45.6613 20.125 46.4975 20.3936 47.9807C20.8114 50.2902 21.269 52.6296 21.2988 54.9689C21.5475 70.6873 21.6769 86.3958 21.8559 102.114C21.8659 103.189 21.8559 104.254 21.8559 105.678C22.9601 105.35 23.8156 105.17 24.6214 104.842C31.3161 102.124 38.1402 99.6853 44.646 96.5794C57.3094 90.537 70.291 85.4103 83.601 80.9805C93.0811 77.8248 92.156 79.6864 89.6691 69.9308C85.2523 52.53 79.6817 35.398 78.866 17.0416Z" fill="#0CAD8E"/>
<path d="M75.2844 141.773C68.3807 141.843 64.6603 135.791 67.4456 130.535C67.9032 129.668 68.4504 128.653 69.2362 128.205C76.0206 124.353 82.7551 120.381 89.7582 116.946C92.663 115.523 95.7766 117.006 97.418 119.345C99.0096 121.625 98.9698 124.492 97.1295 127.2C96.274 128.454 95.3489 129.808 94.1352 130.654C89.4001 133.939 84.6054 137.144 79.7012 140.171C78.1394 141.116 76.1996 141.455 75.2844 141.773Z" fill="black"/>
<path d="M51.679 84.1761C50.6046 83.7281 48.1575 83.2403 46.3968 81.8765C40.9156 77.6159 35.6135 73.1064 30.4109 68.5074C28.0732 66.4468 26.5213 63.7491 26.5412 60.4341C26.5611 55.4468 31.1669 51.6043 35.5339 53.8342C43.6114 57.9654 51.4502 62.654 58.9805 67.7309C62.691 70.2295 63.2182 75.0576 61.5868 78.7806C60.0947 82.1453 56.7423 84.2457 51.679 84.1761Z" fill="#F2AE2F"/>
</svg>
