<svg width="198" height="115" viewBox="0 0 198 115" fill="none" xmlns="http://www.w3.org/2000/svg">
<path d="M15.264 23.208L1.92 32.808V14.184L18.624 1.89599H35.136V69H15.264V23.208ZM70.296 70.44C63.896 70.44 58.296 69.064 53.496 66.312C48.76 63.496 45.08 59.464 42.456 54.216C39.832 48.968 38.52 42.728 38.52 35.496C38.52 28.264 39.8 22.024 42.36 16.776C44.984 11.464 48.664 7.432 53.4 4.68C58.2 1.864 63.832 0.455996 70.296 0.455996C76.76 0.455996 82.392 1.864 87.192 4.68C91.992 7.432 95.672 11.464 98.232 16.776C100.856 22.024 102.168 28.264 102.168 35.496C102.168 42.728 100.856 48.968 98.232 54.216C95.608 59.464 91.896 63.496 87.096 66.312C82.296 69.064 76.696 70.44 70.296 70.44ZM70.296 51.912C74.072 51.912 76.952 50.504 78.936 47.688C80.92 44.808 81.912 40.808 81.912 35.688C81.912 30.568 80.92 26.568 78.936 23.688C77.016 20.744 74.168 19.272 70.392 19.272C66.552 19.272 63.64 20.744 61.656 23.688C59.736 26.568 58.776 30.568 58.776 35.688C58.776 40.808 59.768 44.808 61.752 47.688C63.736 50.504 66.584 51.912 70.296 51.912ZM130.788 17.448H102.66V1.89599H151.908V14.376L126.948 69H107.268L130.788 17.448ZM162.392 47.208H152.408V32.328H162.392V23.304H177.656V32.328H187.736V47.208H177.656V56.232H162.392V47.208Z" fill="black"/>
<rect x="28.4287" y="61" width="141.143" height="54" rx="27" fill="#F1DDC4"/>
<path d="M73.22 96.86C72.02 96.86 70.956 96.612 70.028 96.116C69.1 95.604 68.38 94.892 67.868 93.98C67.356 93.052 67.1 91.98 67.1 90.764C67.1 89.564 67.356 88.5 67.868 87.572C68.38 86.628 69.092 85.9 70.004 85.388C70.932 84.876 72.004 84.62 73.22 84.62C74.02 84.62 74.756 84.732 75.428 84.956C76.1 85.18 76.676 85.5 77.156 85.916V78.764H81.38V96.5H77.3V95.348C76.228 96.356 74.868 96.86 73.22 96.86ZM74.324 93.596C74.964 93.596 75.54 93.436 76.052 93.116C76.564 92.78 76.932 92.332 77.156 91.772V89.732C76.932 89.172 76.564 88.732 76.052 88.412C75.54 88.076 74.964 87.908 74.324 87.908C73.46 87.908 72.764 88.164 72.236 88.676C71.708 89.188 71.444 89.884 71.444 90.764C71.444 91.644 71.708 92.34 72.236 92.852C72.764 93.348 73.46 93.596 74.324 93.596ZM89.7089 96.86C87.4529 96.86 85.6769 96.332 84.3809 95.276C83.1009 94.22 82.4609 92.724 82.4609 90.788C82.4609 88.884 83.0289 87.38 84.1649 86.276C85.3169 85.172 86.9729 84.62 89.1329 84.62C90.5089 84.62 91.6849 84.884 92.6609 85.412C93.6529 85.924 94.3969 86.636 94.8929 87.548C95.4049 88.444 95.6609 89.46 95.6609 90.596V92.156H86.4689C86.6289 92.796 87.0289 93.26 87.6689 93.548C88.3089 93.836 89.1809 93.98 90.2849 93.98C91.0369 93.98 91.8049 93.916 92.5889 93.788C93.3889 93.66 94.0769 93.484 94.6529 93.26V96.044C94.0609 96.284 93.3169 96.476 92.4209 96.62C91.5409 96.78 90.6369 96.86 89.7089 96.86ZM91.6769 89.516C91.6129 88.892 91.3569 88.404 90.9089 88.052C90.4609 87.7 89.8449 87.524 89.0609 87.524C88.2929 87.524 87.6849 87.708 87.2369 88.076C86.7889 88.428 86.5329 88.908 86.4689 89.516H91.6769ZM96.7316 84.98H100.644V86.228C101.124 85.716 101.676 85.324 102.3 85.052C102.924 84.764 103.588 84.62 104.292 84.62C105.156 84.62 105.844 84.748 106.356 85.004C106.884 85.26 107.308 85.644 107.628 86.156C108.108 85.676 108.692 85.3 109.38 85.028C110.068 84.756 110.764 84.62 111.468 84.62C112.988 84.62 114.068 85.012 114.708 85.796C115.348 86.564 115.668 87.676 115.668 89.132V96.5H111.636V89.732C111.636 89.092 111.516 88.628 111.276 88.34C111.036 88.052 110.636 87.908 110.076 87.908C109.356 87.908 108.772 88.164 108.324 88.676C108.34 88.948 108.348 89.364 108.348 89.924V96.5H104.316V89.564C104.316 88.972 104.212 88.548 104.004 88.292C103.796 88.036 103.428 87.908 102.9 87.908C102.084 87.908 101.38 88.364 100.788 89.276V96.5H96.7316V84.98ZM123.381 96.86C121.957 96.86 120.709 96.604 119.637 96.092C118.565 95.564 117.733 94.844 117.141 93.932C116.565 93.004 116.277 91.94 116.277 90.74C116.277 89.54 116.565 88.484 117.141 87.572C117.733 86.644 118.565 85.924 119.637 85.412C120.709 84.884 121.957 84.62 123.381 84.62C124.805 84.62 126.053 84.884 127.125 85.412C128.197 85.924 129.021 86.644 129.597 87.572C130.189 88.484 130.485 89.54 130.485 90.74C130.485 91.94 130.189 93.004 129.597 93.932C129.021 94.844 128.197 95.564 127.125 96.092C126.053 96.604 124.805 96.86 123.381 96.86ZM123.381 93.572C124.229 93.572 124.901 93.324 125.397 92.828C125.909 92.316 126.165 91.62 126.165 90.74C126.165 89.86 125.909 89.172 125.397 88.676C124.901 88.164 124.229 87.908 123.381 87.908C122.533 87.908 121.853 88.164 121.341 88.676C120.845 89.172 120.597 89.86 120.597 90.74C120.597 91.62 120.845 92.316 121.341 92.828C121.853 93.324 122.533 93.572 123.381 93.572Z" fill="black"/>
</svg>
