<svg width="24" height="25" viewBox="0 0 24 25" fill="none" xmlns="http://www.w3.org/2000/svg">
<path d="M12.3688 6.53226C11.189 6.53226 10.0358 6.88209 9.05487 7.53752C8.07395 8.19295 7.30942 9.12453 6.85795 10.2145C6.40649 11.3044 6.28836 12.5037 6.51852 13.6608C6.74867 14.8179 7.31677 15.8807 8.15097 16.7149C8.98517 17.5491 10.048 18.1172 11.2051 18.3473C12.3622 18.5775 13.5615 18.4594 14.6514 18.0079C15.7414 17.5564 16.6729 16.7919 17.3284 15.811C17.9838 14.8301 18.3336 13.6768 18.3336 12.4971C18.3348 11.7135 18.1813 10.9373 17.882 10.2131C17.5826 9.48885 17.1433 8.83082 16.5892 8.2767C16.0351 7.72257 15.377 7.28325 14.6528 6.98391C13.9286 6.68456 13.1524 6.53108 12.3688 6.53226ZM12.3688 16.3778C11.6018 16.3778 10.852 16.1503 10.2142 15.7242C9.57645 15.2981 9.07938 14.6924 8.78585 13.9838C8.49233 13.2751 8.41553 12.4954 8.56517 11.7431C8.7148 10.9908 9.08416 10.2998 9.62652 9.75743C10.1689 9.21507 10.8599 8.84571 11.6122 8.69607C12.3645 8.54644 13.1442 8.62324 13.8529 8.91676C14.5615 9.21029 15.1672 9.70735 15.5933 10.3451C16.0194 10.9829 16.2469 11.7327 16.2469 12.4997C16.2442 13.5271 15.8347 14.5117 15.1079 15.238C14.3811 15.9643 13.3962 16.3732 12.3688 16.3752V16.3778ZM19.9703 6.28932C19.9703 6.56446 19.8887 6.83343 19.7358 7.06221C19.583 7.29098 19.3657 7.46929 19.1115 7.57458C18.8573 7.67988 18.5776 7.70743 18.3077 7.65375C18.0379 7.60007 17.79 7.46757 17.5954 7.27302C17.4009 7.07846 17.2684 6.83058 17.2147 6.56072C17.161 6.29086 17.1886 6.01115 17.2939 5.75695C17.3992 5.50274 17.5775 5.28548 17.8062 5.13261C18.035 4.97975 18.304 4.89816 18.5791 4.89816C18.7615 4.89833 18.942 4.93441 19.1104 5.00435C19.2788 5.07429 19.4318 5.17671 19.5607 5.30578C19.6895 5.43484 19.7916 5.58801 19.8613 5.75655C19.9309 5.92509 19.9666 6.10569 19.9665 6.28804L19.9703 6.28932ZM23.9213 7.69582C23.9597 5.88683 23.2845 4.13543 22.0417 2.82037C20.7226 1.58182 18.9715 0.908175 17.1624 0.94333C15.2444 0.834645 9.48415 0.834645 7.56235 0.94333C5.75501 0.908081 4.0056 1.58132 2.68817 2.81909C1.44715 4.13527 0.772232 5.88592 0.808564 7.69454C0.69988 9.6125 0.69988 15.3728 0.808564 17.2946C0.770502 19.1031 1.44569 20.854 2.68817 22.1687C4.00642 23.4065 5.75568 24.0808 7.56363 24.0483C9.4816 24.157 15.2419 24.157 17.1637 24.0483C18.9727 24.0867 20.7241 23.4115 22.0391 22.1687C23.2777 20.851 23.9522 19.1014 23.9187 17.2933C24.0274 15.3753 24.0274 9.62145 23.9187 7.70349L23.9213 7.69582ZM21.4356 19.3557C21.2382 19.8563 20.9399 20.311 20.5594 20.6915C20.1789 21.0721 19.7242 21.3703 19.2236 21.5678C17.6892 22.1751 14.0579 22.0345 12.3649 22.0345C10.672 22.0345 7.033 22.17 5.5063 21.5678C5.00498 21.3708 4.54955 21.0727 4.16834 20.6922C3.78713 20.3116 3.48829 19.8567 3.29041 19.3557C2.68305 17.8214 2.8237 14.19 2.8237 12.4971C2.8237 10.8042 2.69328 7.16519 3.29041 5.63849C3.48786 5.13788 3.78611 4.6832 4.16664 4.30268C4.54717 3.92215 5.00185 3.6239 5.50246 3.42645C7.03683 2.81909 10.6682 2.95974 12.3611 2.95974C14.054 2.95974 17.693 2.82421 19.2197 3.42645C19.7203 3.6239 20.175 3.92215 20.5556 4.30268C20.9361 4.6832 21.2343 5.13788 21.4318 5.63849C22.0391 7.17286 21.8985 10.8042 21.8985 12.4971C21.8985 14.19 22.043 17.829 21.4356 19.3557Z" fill="black"/>
</svg>
