<svg width="24" height="25" viewBox="0 0 24 25" fill="none" xmlns="http://www.w3.org/2000/svg">
<path d="M5.44228 24.1269H0.619236V8.5978H5.44228V24.1269ZM3.0282 6.48038C2.47278 6.48316 1.92903 6.32108 1.46578 6.01467C1.00253 5.70825 0.640606 5.27128 0.425836 4.75906C0.211066 4.24684 0.153103 3.68242 0.259287 3.13724C0.36547 2.59207 0.631025 2.09065 1.02233 1.69648C1.41364 1.30231 1.9131 1.0331 2.45749 0.922944C3.00188 0.812785 3.56671 0.866626 4.08048 1.07765C4.59425 1.28868 5.03386 1.6474 5.34365 2.1084C5.65344 2.5694 5.81948 3.11195 5.82075 3.66737C5.82077 4.4099 5.52721 5.12231 5.00409 5.64927C4.48096 6.17623 3.77071 6.47498 3.0282 6.48038ZM23.4865 24.1256H18.6788V16.5676C18.6788 14.766 18.643 12.4555 16.1714 12.4555C13.6639 12.4555 13.2804 14.4131 13.2804 16.4371V24.1269H8.46243V8.5978H13.0873V10.7127H13.1499C13.6124 9.92113 14.281 9.26988 15.0844 8.82832C15.8878 8.38676 16.796 8.17142 17.7121 8.20526C22.5927 8.20526 23.489 11.4185 23.489 15.5932V24.123L23.4865 24.1256Z" fill="black"/>
</svg>
