<svg width="24" height="24" viewBox="0 0 24 24" fill="none" xmlns="http://www.w3.org/2000/svg">
<path opacity="0.4" d="M19.0698 19.8191C18.8798 19.8191 18.6898 19.7491 18.5398 19.5991C18.2498 19.3091 18.2498 18.8291 18.5398 18.5391C22.1498 14.9291 22.1498 9.05914 18.5398 5.45914C18.2498 5.16914 18.2498 4.68914 18.5398 4.39914C18.8298 4.10914 19.3098 4.10914 19.5998 4.39914C23.7898 8.58914 23.7898 15.4091 19.5998 19.5991C19.4498 19.7491 19.2598 19.8191 19.0698 19.8191Z" fill="white"/>
<path opacity="0.4" d="M4.93031 19.8191C4.74031 19.8191 4.55031 19.7491 4.40031 19.5991C0.210312 15.4091 0.210312 8.58914 4.40031 4.39914C4.69031 4.10914 5.17031 4.10914 5.46031 4.39914C5.75031 4.68914 5.75031 5.16914 5.46031 5.45914C1.85031 9.06914 1.85031 14.9391 5.46031 18.5391C5.75031 18.8291 5.75031 19.3091 5.46031 19.5991C5.31031 19.7491 5.12031 19.8191 4.93031 19.8191Z" fill="white"/>
<path opacity="0.4" d="M11.9998 22.71C10.7498 22.7 9.55978 22.4999 8.44978 22.1099C8.05978 21.9699 7.84976 21.54 7.98976 21.15C8.12976 20.76 8.54978 20.55 8.94978 20.69C9.90978 21.02 10.9298 21.2 12.0098 21.2C13.0798 21.2 14.1098 21.02 15.0598 20.69C15.4498 20.56 15.8798 20.76 16.0198 21.15C16.1598 21.54 15.9498 21.9699 15.5598 22.1099C14.4398 22.4999 13.2498 22.71 11.9998 22.71Z" fill="white"/>
<path opacity="0.4" d="M15.3 3.33911C15.22 3.33911 15.13 3.32907 15.05 3.29907C14.09 2.96907 13.06 2.78906 11.99 2.78906C10.92 2.78906 9.89999 2.96907 8.93999 3.29907C8.54999 3.42907 8.11999 3.22911 7.97999 2.83911C7.83999 2.44911 8.04999 2.01909 8.43999 1.87909C9.54999 1.48909 10.75 1.28906 11.99 1.28906C13.23 1.28906 14.43 1.48909 15.54 1.87909C15.93 2.01909 16.14 2.44911 16 2.83911C15.9 3.14911 15.61 3.33911 15.3 3.33911Z" fill="white"/>
<path d="M8.74023 12.0001V10.3302C8.74023 8.25016 10.2103 7.40014 12.0103 8.44014L13.4602 9.28017L14.9102 10.1201C16.7102 11.1601 16.7102 12.8602 14.9102 13.9002L13.4602 14.7401L12.0103 15.5802C10.2103 16.6202 8.74023 15.7701 8.74023 13.6901V12.0001Z" fill="white"/>
</svg>
