<svg width="137" height="114" viewBox="0 0 137 114" fill="none" xmlns="http://www.w3.org/2000/svg">
<path d="M40.764 23.208L27.42 32.808V14.184L44.124 1.89599H60.636V69H40.764V23.208ZM91.188 17.448H63.06V1.89599H112.308V14.376L87.348 69H67.668L91.188 17.448Z" fill="black"/>
<rect y="59" width="137" height="55" rx="27.5" fill="#F1DDC4"/>
<path d="M42.72 95.36C41.52 95.36 40.456 95.112 39.528 94.616C38.6 94.104 37.88 93.392 37.368 92.48C36.856 91.552 36.6 90.48 36.6 89.264C36.6 88.064 36.856 87 37.368 86.072C37.88 85.128 38.592 84.4 39.504 83.888C40.432 83.376 41.504 83.12 42.72 83.12C43.52 83.12 44.256 83.232 44.928 83.456C45.6 83.68 46.176 84 46.656 84.416V77.264H50.88V95H46.8V93.848C45.728 94.856 44.368 95.36 42.72 95.36ZM43.824 92.096C44.464 92.096 45.04 91.936 45.552 91.616C46.064 91.28 46.432 90.832 46.656 90.272V88.232C46.432 87.672 46.064 87.232 45.552 86.912C45.04 86.576 44.464 86.408 43.824 86.408C42.96 86.408 42.264 86.664 41.736 87.176C41.208 87.688 40.944 88.384 40.944 89.264C40.944 90.144 41.208 90.84 41.736 91.352C42.264 91.848 42.96 92.096 43.824 92.096ZM59.2089 95.36C56.9529 95.36 55.1769 94.832 53.8809 93.776C52.6009 92.72 51.9609 91.224 51.9609 89.288C51.9609 87.384 52.5289 85.88 53.6649 84.776C54.8169 83.672 56.4729 83.12 58.6329 83.12C60.0089 83.12 61.1849 83.384 62.1609 83.912C63.1529 84.424 63.8969 85.136 64.3929 86.048C64.9049 86.944 65.1609 87.96 65.1609 89.096V90.656H55.9689C56.1289 91.296 56.5289 91.76 57.1689 92.048C57.8089 92.336 58.6809 92.48 59.7849 92.48C60.5369 92.48 61.3049 92.416 62.0889 92.288C62.8889 92.16 63.5769 91.984 64.1529 91.76V94.544C63.5609 94.784 62.8169 94.976 61.9209 95.12C61.0409 95.28 60.1369 95.36 59.2089 95.36ZM61.1769 88.016C61.1129 87.392 60.8569 86.904 60.4089 86.552C59.9609 86.2 59.3449 86.024 58.5609 86.024C57.7929 86.024 57.1849 86.208 56.7369 86.576C56.2889 86.928 56.0329 87.408 55.9689 88.016H61.1769ZM66.2316 83.48H70.1436V84.728C70.6236 84.216 71.1756 83.824 71.7996 83.552C72.4236 83.264 73.0876 83.12 73.7916 83.12C74.6556 83.12 75.3436 83.248 75.8556 83.504C76.3836 83.76 76.8076 84.144 77.1276 84.656C77.6076 84.176 78.1916 83.8 78.8796 83.528C79.5676 83.256 80.2636 83.12 80.9676 83.12C82.4876 83.12 83.5676 83.512 84.2076 84.296C84.8476 85.064 85.1676 86.176 85.1676 87.632V95H81.1356V88.232C81.1356 87.592 81.0156 87.128 80.7756 86.84C80.5356 86.552 80.1356 86.408 79.5756 86.408C78.8556 86.408 78.2716 86.664 77.8236 87.176C77.8396 87.448 77.8476 87.864 77.8476 88.424V95H73.8156V88.064C73.8156 87.472 73.7116 87.048 73.5036 86.792C73.2956 86.536 72.9276 86.408 72.3996 86.408C71.5836 86.408 70.8796 86.864 70.2876 87.776V95H66.2316V83.48ZM92.8806 95.36C91.4566 95.36 90.2086 95.104 89.1366 94.592C88.0646 94.064 87.2326 93.344 86.6406 92.432C86.0646 91.504 85.7766 90.44 85.7766 89.24C85.7766 88.04 86.0646 86.984 86.6406 86.072C87.2326 85.144 88.0646 84.424 89.1366 83.912C90.2086 83.384 91.4566 83.12 92.8806 83.12C94.3046 83.12 95.5526 83.384 96.6246 83.912C97.6966 84.424 98.5206 85.144 99.0966 86.072C99.6886 86.984 99.9846 88.04 99.9846 89.24C99.9846 90.44 99.6886 91.504 99.0966 92.432C98.5206 93.344 97.6966 94.064 96.6246 94.592C95.5526 95.104 94.3046 95.36 92.8806 95.36ZM92.8806 92.072C93.7286 92.072 94.4006 91.824 94.8966 91.328C95.4086 90.816 95.6646 90.12 95.6646 89.24C95.6646 88.36 95.4086 87.672 94.8966 87.176C94.4006 86.664 93.7286 86.408 92.8806 86.408C92.0326 86.408 91.3526 86.664 90.8406 87.176C90.3446 87.672 90.0966 88.36 90.0966 89.24C90.0966 90.12 90.3446 90.816 90.8406 91.328C91.3526 91.824 92.0326 92.072 92.8806 92.072Z" fill="black"/>
</svg>
