<svg width="685" height="440" viewBox="0 0 685 440" fill="none" xmlns="http://www.w3.org/2000/svg">
<path d="M3.46785 198.662C9.32716 192.199 19.8653 194.084 23.3671 202.093C32.0955 222.056 42.0392 241.113 56.1126 256.938C71.8607 274.622 92.5291 284.932 118.86 286.017C129.76 286.457 140.925 285.079 152.422 281.918C188.771 271.966 222.638 252.674 255.281 228.036C288.41 203.034 319.315 174.93 350.207 146.734C385.729 114.319 421.326 81.9713 459.947 54.1364C482.639 37.7785 505.992 23.5651 530.66 13.5015C548.62 6.17656 566.399 1.71322 584.12 0.405774C611.103 -1.59221 631.929 7.19173 648.511 23.7596C663.628 38.857 672.747 58.3338 678.09 80.5689C685.983 113.38 686.173 148.463 677.735 185.94C664.127 246.372 639.139 304.491 600.281 359.53C584.238 382.253 566.723 403.943 544.356 420.65C536.207 426.742 527.198 432.047 518.308 435.74C498.529 443.959 482.955 438.749 475.202 422.765C467.691 407.263 467.531 388.957 470.342 369.532C470.706 367.047 470.923 364.531 471.691 362.05C472.158 360.546 473.329 358.564 474.559 357.784C475.482 357.193 477.621 357.661 478.197 358.526C481.047 362.802 483.979 367.074 486.073 371.885C489.805 380.488 492.386 389.892 496.466 398.239C504.011 413.617 512.511 414.264 530.469 401.745C542.45 393.39 552.708 382.861 562.087 371.501C617.315 304.604 647.958 232.374 656.864 156.189C660.966 121.168 656.252 89.306 641.801 62.137C635.218 49.7528 625.826 40.1752 614.073 33.0578C604.002 26.9565 592.092 25.1223 579.031 25.7845C553.942 27.0615 528.953 35.7623 504.083 48.7978C472.439 65.3737 443.127 87.1856 415.158 111.269C380.004 141.517 345.499 172.722 310.629 203.386C281.169 229.29 250.8 253.58 217.865 273.045C196.792 285.508 175.162 294.852 153.161 301.431C115.46 312.704 84.2445 306.867 57.8933 288.545C37.9677 274.687 24.8633 254.358 12.4169 233.431C8.66695 227.131 5.61512 220.345 2.06149 213.903C-0.641011 209.003 -0.284243 202.801 3.46785 198.662Z" fill="url(#paint0_linear_0_792)"/>
<defs>
<linearGradient id="paint0_linear_0_792" x1="707.886" y1="338.825" x2="18.3748" y2="230.813" gradientUnits="userSpaceOnUse">
<stop stop-color="#FCFCFC"/>
<stop offset="1" stop-color="#FCFCFC" stop-opacity="0"/>
</linearGradient>
</defs>
</svg>
