<svg width="164" height="213" viewBox="0 0 164 213" fill="none" xmlns="http://www.w3.org/2000/svg">
<path d="M165.244 124.381C163.752 121.694 162.558 119.504 161.166 117.314C150.522 99.5956 142.266 80.7823 134.905 61.4712C129.932 48.4313 123.864 35.7896 118.194 22.9487C117.398 21.2565 116.304 19.6638 115.21 17.7726C114.315 18.6684 113.519 19.2657 112.823 19.8629C105.362 27.4281 99.1949 36.0882 93.9229 45.246C84.871 60.7745 75.4212 75.9047 64.6783 90.2387C64.1809 90.836 63.8825 91.5328 63.3852 92.4286C77.8085 91.9309 92.033 91.4332 106.655 90.9355C106.158 89.8406 105.76 88.9447 105.362 88.1484C102.378 81.9768 99.4933 75.7057 98.6976 68.7378C98.4986 66.7469 98.4986 64.557 98.8965 62.5662C100.19 56.2951 106.357 53.8065 111.231 57.8877C113.519 59.779 115.508 62.3671 116.801 65.0547C118.592 68.5387 119.587 72.5204 120.88 76.2034C122.571 81.28 124.162 86.3566 125.953 91.3337C128.638 98.6002 125.058 103.876 117.299 104.374C102.477 105.269 87.7557 106.066 73.0339 107.559C66.7672 108.156 60.6994 110.147 54.5322 111.441C52.5428 111.839 50.4538 112.436 48.3649 112.636C40.3077 113.332 34.6379 106.663 36.7268 98.7993C37.4231 96.3107 38.5173 93.8222 39.9099 91.7318C43.8887 85.9584 47.9671 80.185 52.5428 74.8098C61.4952 64.2584 69.5524 53.0102 77.2117 41.4634C83.2795 32.4051 89.9441 23.6455 96.7081 15.0849C99.9907 10.9042 104.069 7.42023 107.948 3.7372C111.231 0.651417 115.409 -0.244438 119.786 0.0541864C121.874 0.153728 123.267 1.3482 124.461 3.13995C137.392 22.0528 143.559 43.9519 151.815 64.9552C159.276 83.8681 168.129 101.985 178.374 119.504C180.463 122.988 182.652 126.372 184.74 129.856C186.829 133.141 186.034 137.521 182.453 139.512C180.463 140.607 178.076 141.503 175.887 141.602C157.386 142.996 138.984 144.389 120.482 145.484C104.467 146.48 88.5515 147.376 72.9344 151.457C57.2179 155.637 42.894 162.506 31.3553 174.152C28.8685 176.641 26.8791 179.627 25.1881 182.613C23.4971 185.5 24.1934 187.192 27.078 188.984C31.3553 191.572 36.0305 193.065 40.8051 191.771C47.1713 190.079 53.3385 187.69 59.5058 185.599C61.1968 185.002 61.6941 183.907 61.4952 182.016C60.8984 175.247 66.4688 171.365 72.7355 173.953C80.1958 177.039 82.981 185.998 78.6043 192.766C77.709 194.16 76.5154 195.554 75.2223 196.549C63.982 204.413 52.1449 210.883 38.2188 212.376C29.2664 213.371 20.7119 211.48 12.9531 206.901C1.71279 200.232 -2.56449 188.387 1.51385 176.043C4.10011 168.08 8.97422 161.61 14.7436 155.737C29.4654 140.706 47.5692 132.146 67.6624 126.87C86.8604 121.893 106.357 120.997 126.052 122.192C138.287 122.888 150.622 123.685 162.857 124.481C163.454 124.381 164.15 124.381 165.244 124.381Z" fill="#0CAD8E"/>
<path d="M140.774 181.818C140.873 190.478 134.209 198.442 124.66 201.328C118.094 203.22 111.927 202.523 107.053 197.546C102.179 192.668 99.6921 186.696 101.881 179.529C102.676 176.941 103.273 174.353 103.969 171.665C105.561 165.991 109.54 163.005 115.11 161.81C127.544 159.123 140.674 169.376 140.774 181.818Z" fill="#F1DDC4"/>
</svg>
