<svg width="138" height="114" viewBox="0 0 138 114" fill="none" xmlns="http://www.w3.org/2000/svg">
<path d="M15.9683 58.44L25.2803 49.992C27.8403 47.688 29.7603 46.024 31.0403 45C34.6243 41.864 37.3443 39.432 39.2003 37.704C41.0563 35.912 42.5923 34.088 43.8083 32.232C45.0243 30.376 45.6323 28.552 45.6323 26.76C45.6323 24.52 44.8963 22.728 43.4243 21.384C41.9523 19.976 39.5523 19.272 36.2243 19.272C33.1523 19.272 30.0163 19.848 26.8163 21C23.6803 22.152 20.7683 23.752 18.0803 25.8V6.984C21.0243 4.936 24.5123 3.336 28.5443 2.184C32.6403 1.032 36.9283 0.455996 41.4083 0.455996C46.5283 0.455996 50.9443 1.384 54.6563 3.23999C58.4323 5.096 61.3123 7.656 63.2963 10.92C65.2803 14.12 66.2723 17.736 66.2723 21.768C66.2723 27.016 65.2163 31.496 63.1043 35.208C60.9923 38.856 57.5683 42.792 52.8323 47.016L45.6323 53.448H68.2883V69H15.9683V58.44ZM91.1326 70.44C87.1646 70.44 83.2286 69.992 79.3246 69.096C75.4206 68.264 72.2206 67.08 69.7246 65.544V48.648C72.6686 50.632 75.9966 52.168 79.7086 53.256C83.4206 54.344 86.9086 54.888 90.1726 54.888C94.2046 54.888 97.1166 54.184 98.9086 52.776C100.765 51.368 101.693 49.416 101.693 46.92C101.693 44.424 100.733 42.536 98.8126 41.256C96.8926 39.912 94.1726 39.24 90.6526 39.24C88.5406 39.24 86.2366 39.464 83.7406 39.912C81.3086 40.296 79.1966 40.84 77.4046 41.544L70.2046 37.416L72.8926 1.89599H117.725V17.448H91.7086L91.0366 25.704C93.5966 25.064 96.4446 24.744 99.5806 24.744C106.749 24.744 112.285 26.6 116.189 30.312C120.093 33.96 122.045 39.304 122.045 46.344C122.045 53.96 119.453 59.88 114.269 64.104C109.085 68.328 101.373 70.44 91.1326 70.44Z" fill="black"/>
<rect x="0.54834" y="59" width="137" height="55" rx="27.5" fill="#F1DDC4"/>
<path d="M43.2683 95.36C42.0683 95.36 41.0043 95.112 40.0763 94.616C39.1483 94.104 38.4283 93.392 37.9163 92.48C37.4043 91.552 37.1483 90.48 37.1483 89.264C37.1483 88.064 37.4043 87 37.9163 86.072C38.4283 85.128 39.1403 84.4 40.0523 83.888C40.9803 83.376 42.0523 83.12 43.2683 83.12C44.0683 83.12 44.8043 83.232 45.4763 83.456C46.1483 83.68 46.7243 84 47.2043 84.416V77.264H51.4283V95H47.3483V93.848C46.2763 94.856 44.9163 95.36 43.2683 95.36ZM44.3723 92.096C45.0123 92.096 45.5883 91.936 46.1003 91.616C46.6123 91.28 46.9803 90.832 47.2043 90.272V88.232C46.9803 87.672 46.6123 87.232 46.1003 86.912C45.5883 86.576 45.0123 86.408 44.3723 86.408C43.5083 86.408 42.8123 86.664 42.2843 87.176C41.7563 87.688 41.4923 88.384 41.4923 89.264C41.4923 90.144 41.7563 90.84 42.2843 91.352C42.8123 91.848 43.5083 92.096 44.3723 92.096ZM59.7573 95.36C57.5013 95.36 55.7253 94.832 54.4293 93.776C53.1493 92.72 52.5093 91.224 52.5093 89.288C52.5093 87.384 53.0773 85.88 54.2133 84.776C55.3653 83.672 57.0213 83.12 59.1813 83.12C60.5573 83.12 61.7333 83.384 62.7093 83.912C63.7013 84.424 64.4453 85.136 64.9413 86.048C65.4533 86.944 65.7093 87.96 65.7093 89.096V90.656H56.5173C56.6773 91.296 57.0773 91.76 57.7173 92.048C58.3573 92.336 59.2293 92.48 60.3333 92.48C61.0853 92.48 61.8533 92.416 62.6373 92.288C63.4373 92.16 64.1253 91.984 64.7013 91.76V94.544C64.1093 94.784 63.3653 94.976 62.4693 95.12C61.5893 95.28 60.6853 95.36 59.7573 95.36ZM61.7253 88.016C61.6613 87.392 61.4053 86.904 60.9573 86.552C60.5093 86.2 59.8933 86.024 59.1093 86.024C58.3413 86.024 57.7333 86.208 57.2853 86.576C56.8373 86.928 56.5813 87.408 56.5173 88.016H61.7253ZM66.7799 83.48H70.6919V84.728C71.1719 84.216 71.7239 83.824 72.3479 83.552C72.9719 83.264 73.6359 83.12 74.3399 83.12C75.2039 83.12 75.8919 83.248 76.4039 83.504C76.9319 83.76 77.3559 84.144 77.6759 84.656C78.1559 84.176 78.7399 83.8 79.4279 83.528C80.1159 83.256 80.8119 83.12 81.5159 83.12C83.0359 83.12 84.1159 83.512 84.7559 84.296C85.3959 85.064 85.7159 86.176 85.7159 87.632V95H81.6839V88.232C81.6839 87.592 81.5639 87.128 81.3239 86.84C81.0839 86.552 80.6839 86.408 80.1239 86.408C79.4039 86.408 78.8199 86.664 78.3719 87.176C78.3879 87.448 78.3959 87.864 78.3959 88.424V95H74.3639V88.064C74.3639 87.472 74.2599 87.048 74.0519 86.792C73.8439 86.536 73.4759 86.408 72.9479 86.408C72.1319 86.408 71.4279 86.864 70.8359 87.776V95H66.7799V83.48ZM93.4289 95.36C92.0049 95.36 90.7569 95.104 89.6849 94.592C88.6129 94.064 87.7809 93.344 87.1889 92.432C86.6129 91.504 86.3249 90.44 86.3249 89.24C86.3249 88.04 86.6129 86.984 87.1889 86.072C87.7809 85.144 88.6129 84.424 89.6849 83.912C90.7569 83.384 92.0049 83.12 93.4289 83.12C94.8529 83.12 96.1009 83.384 97.1729 83.912C98.2449 84.424 99.0689 85.144 99.6449 86.072C100.237 86.984 100.533 88.04 100.533 89.24C100.533 90.44 100.237 91.504 99.6449 92.432C99.0689 93.344 98.2449 94.064 97.1729 94.592C96.1009 95.104 94.8529 95.36 93.4289 95.36ZM93.4289 92.072C94.2769 92.072 94.9489 91.824 95.4449 91.328C95.9569 90.816 96.2129 90.12 96.2129 89.24C96.2129 88.36 95.9569 87.672 95.4449 87.176C94.9489 86.664 94.2769 86.408 93.4289 86.408C92.5809 86.408 91.9009 86.664 91.3889 87.176C90.8929 87.672 90.6449 88.36 90.6449 89.24C90.6449 90.12 90.8929 90.816 91.3889 91.328C91.9009 91.824 92.5809 92.072 93.4289 92.072Z" fill="black"/>
</svg>
