<svg width="28" height="23" viewBox="0 0 28 23" fill="none" xmlns="http://www.w3.org/2000/svg">
<path d="M24.7206 6.08403C24.7373 6.32058 24.7373 6.55585 24.7373 6.7924C24.7514 8.83195 24.3601 10.854 23.5861 12.741C22.8121 14.628 21.6708 16.3425 20.2286 17.7847C18.7864 19.2269 17.0719 20.3681 15.1849 21.1421C13.2979 21.9161 11.2758 22.3074 9.23627 22.2933C6.27016 22.3009 3.36499 21.4515 0.870117 19.8473C1.307 19.8955 1.74632 19.9182 2.18584 19.9151C4.63796 19.9215 7.02075 19.1017 8.94986 17.5879C7.81279 17.5673 6.71058 17.1919 5.79726 16.5142C4.88395 15.8366 4.20516 14.8905 3.85575 13.8083C4.19414 13.8619 4.53606 13.8901 4.87866 13.8927C5.36234 13.8913 5.84391 13.829 6.31202 13.7073C5.07952 13.4567 3.97168 12.7874 3.17647 11.813C2.38127 10.8385 1.94769 9.619 1.94929 8.36129V8.29352C2.70421 8.71491 3.54803 8.95193 4.41196 8.98527C3.25513 8.21403 2.43638 7.03025 2.12293 5.6757C1.80948 4.32115 2.02499 2.89804 2.72543 1.69702C4.09375 3.38138 5.80082 4.75934 7.73593 5.74154C9.67104 6.72374 11.791 7.28826 13.9583 7.39847C13.8707 6.9882 13.8253 6.57004 13.8228 6.15052C13.825 5.05896 14.1548 3.9932 14.7695 3.09114C15.3841 2.18908 16.2554 1.49223 17.2704 1.09075C18.2855 0.689275 19.3976 0.601653 20.463 0.83922C21.5284 1.07679 22.498 1.62861 23.2464 2.42329C24.4646 2.18769 25.6327 1.74252 26.6987 1.10757C26.2925 2.36651 25.441 3.434 24.3038 4.10982C25.386 3.98654 26.4436 3.70209 27.4416 3.26591C26.6954 4.3505 25.7716 5.3015 24.7091 6.07892L24.7206 6.08403Z" fill="black"/>
</svg>
