<svg width="169" height="15" viewBox="0 0 169 15" fill="none" xmlns="http://www.w3.org/2000/svg">
<path d="M0.4 1.816H3.424L6.272 9.256L9.12 1.816H12.128L7.664 13H4.88L0.4 1.816ZM13.3084 4.296C12.8817 4.296 12.5244 4.15733 12.2364 3.88C11.9484 3.60267 11.8044 3.25067 11.8044 2.824C11.8044 2.408 11.9484 2.06133 12.2364 1.784C12.5244 1.496 12.8817 1.352 13.3084 1.352C13.7244 1.352 14.0764 1.496 14.3644 1.784C14.663 2.06133 14.8124 2.408 14.8124 2.824C14.8124 3.24 14.663 3.592 14.3644 3.88C14.0764 4.15733 13.7244 4.296 13.3084 4.296ZM11.9004 5.32H14.7164V13H11.9004V5.32ZM20.3695 13.24C18.8655 13.24 17.6815 12.888 16.8175 12.184C15.9642 11.48 15.5375 10.4827 15.5375 9.192C15.5375 7.92267 15.9162 6.92 16.6735 6.184C17.4415 5.448 18.5455 5.08 19.9855 5.08C20.9028 5.08 21.6868 5.256 22.3375 5.608C22.9988 5.94933 23.4948 6.424 23.8255 7.032C24.1668 7.62933 24.3375 8.30667 24.3375 9.064V10.104H18.2095C18.3162 10.5307 18.5828 10.84 19.0095 11.032C19.4362 11.224 20.0175 11.32 20.7535 11.32C21.2548 11.32 21.7668 11.2773 22.2895 11.192C22.8228 11.1067 23.2815 10.9893 23.6655 10.84V12.696C23.2708 12.856 22.7748 12.984 22.1775 13.08C21.5908 13.1867 20.9882 13.24 20.3695 13.24ZM21.6815 8.344C21.6388 7.928 21.4682 7.60267 21.1695 7.368C20.8708 7.13333 20.4602 7.016 19.9375 7.016C19.4255 7.016 19.0202 7.13867 18.7215 7.384C18.4228 7.61867 18.2522 7.93867 18.2095 8.344H21.6815ZM24.7312 5.32H27.5472L28.7792 9.72L30.0112 5.32H32.2832L33.5152 9.72L34.7472 5.32H37.5632L34.9872 13H32.4592L31.1472 8.68L29.8352 13H27.3072L24.7312 5.32ZM47.4738 1.816H50.2578L54.7218 13H51.8258L50.9298 10.696H46.8018L45.9058 13H42.9938L47.4738 1.816ZM50.2258 8.52L48.8658 4.76L47.4898 8.52H50.2258ZM58.4862 13.24C57.6862 13.24 56.9769 13.0747 56.3582 12.744C55.7396 12.4027 55.2596 11.928 54.9182 11.32C54.5769 10.7013 54.4062 9.98667 54.4062 9.176C54.4062 8.376 54.5769 7.66667 54.9182 7.048C55.2596 6.41867 55.7342 5.93333 56.3422 5.592C56.9609 5.25067 57.6756 5.08 58.4862 5.08C59.0196 5.08 59.5102 5.15467 59.9582 5.304C60.4062 5.45333 60.7902 5.66667 61.1102 5.944V1.176H63.9262V13H61.2062V12.232C60.4916 12.904 59.5849 13.24 58.4862 13.24ZM59.2222 11.064C59.6489 11.064 60.0329 10.9573 60.3742 10.744C60.7156 10.52 60.9609 10.2213 61.1102 9.848V8.488C60.9609 8.11467 60.7156 7.82133 60.3742 7.608C60.0329 7.384 59.6489 7.272 59.2222 7.272C58.6462 7.272 58.1822 7.44267 57.8302 7.784C57.4782 8.12533 57.3022 8.58933 57.3022 9.176C57.3022 9.76267 57.4782 10.2267 57.8302 10.568C58.1822 10.8987 58.6462 11.064 59.2222 11.064ZM67.6285 13.24C66.6685 13.24 65.8898 13.0107 65.2925 12.552C64.7058 12.0827 64.4125 11.432 64.4125 10.6C64.4125 9.736 64.6952 9.07467 65.2605 8.616C65.8365 8.14667 66.6578 7.912 67.7245 7.912C68.1405 7.912 68.5565 7.96 68.9725 8.056C69.3885 8.14133 69.7458 8.25867 70.0445 8.408V8.248C70.0445 7.42667 69.3725 7.016 68.0285 7.016C67.0898 7.016 66.2312 7.19733 65.4525 7.56V5.624C65.7938 5.464 66.2418 5.336 66.7965 5.24C67.3512 5.13333 67.9272 5.08 68.5245 5.08C69.9538 5.08 71.0312 5.368 71.7565 5.944C72.4925 6.50933 72.8605 7.304 72.8605 8.328V13H70.2205V12.344C69.9325 12.6213 69.5698 12.84 69.1325 13C68.6952 13.16 68.1938 13.24 67.6285 13.24ZM68.4605 11.512C68.7912 11.512 69.1005 11.448 69.3885 11.32C69.6765 11.1813 69.8952 11.0053 70.0445 10.792V10.12C69.5858 9.81067 69.0632 9.656 68.4765 9.656C68.1032 9.656 67.8152 9.736 67.6125 9.896C67.4098 10.056 67.3085 10.2907 67.3085 10.6C67.3085 10.888 67.4045 11.112 67.5965 11.272C67.7992 11.432 68.0872 11.512 68.4605 11.512ZM78.8544 1.816H82.8704C84.097 1.816 85.169 2.04 86.0864 2.488C87.0037 2.936 87.7077 3.58133 88.1984 4.424C88.6997 5.256 88.9504 6.232 88.9504 7.352C88.9504 9.208 88.4064 10.616 87.3184 11.576C86.2304 12.5253 84.721 13 82.7904 13H78.8544V1.816ZM83.0304 10.616C84.001 10.616 84.7424 10.3227 85.2544 9.736C85.777 9.14933 86.0384 8.35467 86.0384 7.352C86.0384 6.43467 85.777 5.68267 85.2544 5.096C84.7424 4.49867 84.033 4.2 83.1264 4.2H81.6864V10.616H83.0304ZM94.1851 13.24C92.6811 13.24 91.4971 12.888 90.6331 12.184C89.7798 11.48 89.3531 10.4827 89.3531 9.192C89.3531 7.92267 89.7318 6.92 90.4891 6.184C91.2571 5.448 92.3611 5.08 93.8011 5.08C94.7185 5.08 95.5025 5.256 96.1531 5.608C96.8145 5.94933 97.3105 6.424 97.6411 7.032C97.9825 7.62933 98.1531 8.30667 98.1531 9.064V10.104H92.0251C92.1318 10.5307 92.3985 10.84 92.8251 11.032C93.2518 11.224 93.8331 11.32 94.5691 11.32C95.0705 11.32 95.5825 11.2773 96.1051 11.192C96.6385 11.1067 97.0971 10.9893 97.4811 10.84V12.696C97.0865 12.856 96.5905 12.984 95.9931 13.08C95.4065 13.1867 94.8038 13.24 94.1851 13.24ZM95.4971 8.344C95.4545 7.928 95.2838 7.60267 94.9851 7.368C94.6865 7.13333 94.2758 7.016 93.7531 7.016C93.2411 7.016 92.8358 7.13867 92.5371 7.384C92.2385 7.61867 92.0678 7.93867 92.0251 8.344H95.4971ZM98.8669 5.32H101.587V6.168C101.918 5.80533 102.318 5.53333 102.787 5.352C103.256 5.17067 103.747 5.08 104.259 5.08C105.336 5.08 106.131 5.36267 106.643 5.928C107.166 6.48267 107.427 7.24 107.427 8.2V13H104.611V8.568C104.611 7.704 104.216 7.272 103.427 7.272C103.064 7.272 102.734 7.35733 102.435 7.528C102.136 7.688 101.886 7.93867 101.683 8.28V13H98.8669V5.32Z" fill="white"/>
<path d="M127.226 7.5L133 13.2735L138.774 7.5L133 1.7265L127.226 7.5ZM168.707 8.20711C169.098 7.81658 169.098 7.18342 168.707 6.79289L162.343 0.428932C161.953 0.0384078 161.319 0.0384078 160.929 0.428932C160.538 0.819457 160.538 1.45262 160.929 1.84315L166.586 7.5L160.929 13.1569C160.538 13.5474 160.538 14.1805 160.929 14.5711C161.319 14.9616 161.953 14.9616 162.343 14.5711L168.707 8.20711ZM133 8.5H168V6.5H133V8.5Z" fill="white"/>
</svg>
