<svg width="181" height="65" viewBox="0 0 181 65" fill="none" xmlns="http://www.w3.org/2000/svg">
<rect x="2.16617" y="17.1937" width="173" height="45" rx="22.5" transform="rotate(-4.98312 2.16617 17.1937)" fill="#0CAD8E"/>
<rect x="2.16617" y="17.1937" width="173" height="45" rx="22.5" transform="rotate(-4.98312 2.16617 17.1937)" stroke="white" stroke-width="4"/>
<path d="M27.9348 31.8269L30.8357 31.5739L33.276 38.0103L34.5018 31.2543L36.5102 31.0792L38.7766 37.5467L40.0488 30.7706L42.9498 30.5177L40.8449 41.9276L38.2468 42.1542L35.8495 35.8426L34.5966 42.4724L31.9825 42.7004L27.9348 31.8269ZM43.0541 29.8662L45.8594 29.6216L46.2875 34.5309C46.5979 34.1612 46.9635 33.8724 47.3844 33.6644C47.8159 33.4554 48.276 33.3297 48.7648 33.287C49.8381 33.1935 50.6543 33.406 51.2135 33.9248C51.7823 34.4319 52.1085 35.1637 52.1919 36.1201L52.6088 40.9019L49.8034 41.1465L49.4185 36.7313C49.3434 35.8706 48.9127 35.4745 48.1264 35.543C47.7651 35.5745 47.4431 35.6883 47.1603 35.8842C46.8767 36.0696 46.6488 36.3411 46.4765 36.6987L46.8865 41.4009L44.0811 41.6455L43.0541 29.8662ZM55.7965 43.804C55.4565 43.8337 55.0982 43.8381 54.7216 43.8174C54.346 43.8073 54.0642 43.7677 53.8761 43.6984L53.6941 41.6103C54.0133 41.711 54.3696 41.7442 54.7627 41.7099C55.1134 41.6793 55.3774 41.576 55.5548 41.3999C55.7437 41.2335 55.8823 40.9806 55.9705 40.6409L56.1173 40.1142L52.1764 33.2305L54.9818 32.9859L57.4078 37.7853L58.8551 32.6482L61.6604 32.4036L59.2021 40.6804C58.9136 41.6692 58.497 42.4175 57.9524 42.9254C57.4184 43.4324 56.6998 43.7253 55.7965 43.804ZM68.4868 30.7805C68.0617 30.8175 67.6937 30.7104 67.3827 30.4592C67.0717 30.2079 66.8976 29.8697 66.8606 29.4447C66.8244 29.0303 66.9378 28.6724 67.2006 28.3711C67.4625 28.0592 67.806 27.8847 68.231 27.8476C68.6455 27.8115 69.0086 27.9244 69.3206 28.1862C69.6422 28.4366 69.8211 28.769 69.8572 29.1834C69.8933 29.5978 69.7752 29.9615 69.5026 30.2743C69.2398 30.5756 68.9012 30.7443 68.4868 30.7805ZM67.173 31.9229L69.9784 31.6783L70.6455 39.3293L67.8401 39.5739L67.173 31.9229ZM71.1152 31.5792L73.8249 31.3429L73.8986 32.1877C74.1965 31.7977 74.5714 31.492 75.0232 31.2706C75.475 31.0492 75.9559 30.9162 76.466 30.8717C77.5392 30.7782 78.3554 30.9907 78.9146 31.5094C79.4835 32.0166 79.8096 32.7484 79.893 33.7048L80.3099 38.4866L77.5046 38.7312L77.1196 34.316C77.0446 33.4552 76.6139 33.0592 75.8275 33.1277C75.4662 33.1592 75.1442 33.273 74.8615 33.4689C74.5779 33.6543 74.3499 33.9257 74.1777 34.2834L74.5877 38.9856L71.7823 39.2302L71.1152 31.5792ZM79.8776 30.8152L82.6829 30.5706L84.8081 34.8662L86.1418 30.269L88.9472 30.0244L86.4104 37.9547L83.7485 38.1868L79.8776 30.8152ZM93.9779 37.5358C92.4796 37.6664 91.2695 37.4186 90.3476 36.7923C89.4363 36.1651 88.9246 35.2086 88.8125 33.9228C88.7023 32.6583 88.9924 31.6265 89.683 30.8275C90.3841 30.0276 91.452 29.5651 92.8865 29.44C93.8004 29.3603 94.5967 29.4675 95.2755 29.7617C95.964 30.0443 96.4994 30.4741 96.8816 31.0511C97.2735 31.6165 97.5024 32.2764 97.5682 33.0309L97.6585 34.067L91.5537 34.5993C91.697 35.0151 91.9895 35.3001 92.4312 35.4543C92.873 35.6085 93.4604 35.6536 94.1937 35.5897C94.6931 35.5462 95.1995 35.4592 95.7127 35.3288C96.2366 35.1974 96.6834 35.0407 97.053 34.8586L97.2142 36.7076C96.8349 36.9012 96.3519 37.0718 95.7652 37.2194C95.19 37.3766 94.5942 37.4821 93.9779 37.5358ZM94.8597 32.5443C94.781 32.1336 94.5827 31.8243 94.2648 31.6165C93.9469 31.4087 93.5276 31.3274 93.0069 31.3728C92.4968 31.4173 92.1037 31.5747 91.8275 31.8451C91.5503 32.1048 91.4081 32.4384 91.4008 32.8459L94.8597 32.5443ZM101.941 36.8414C101.325 36.8952 100.677 36.8875 99.9961 36.8183C99.3164 36.7598 98.7703 36.6361 98.3576 36.4472L98.1784 34.391C98.6363 34.6081 99.1755 34.7752 99.796 34.8924C100.426 34.9981 100.996 35.0287 101.506 34.9842C101.878 34.9518 102.147 34.9016 102.312 34.8336C102.478 34.7657 102.554 34.652 102.54 34.4926C102.529 34.3651 102.461 34.2692 102.338 34.205C102.224 34.1293 102.015 34.0619 101.71 34.0028C101.415 33.9322 101.071 33.8604 100.679 33.7875C100.015 33.6528 99.4873 33.5007 99.0978 33.3312C98.7082 33.1617 98.4097 32.9308 98.2022 32.6384C97.9947 32.3459 97.8705 31.966 97.8298 31.4984C97.7575 30.6695 98.0279 30.025 98.6409 29.5646C99.2636 29.0928 100.143 28.8073 101.28 28.7081C101.833 28.6599 102.417 28.6679 103.033 28.732C103.66 28.7951 104.135 28.9089 104.46 29.0733L104.637 31.0976C104.299 30.9129 103.859 30.7746 103.316 30.6828C102.783 30.5901 102.288 30.5636 101.831 30.6034C101.47 30.6349 101.192 30.6967 100.996 30.7887C100.8 30.87 100.709 30.9957 100.724 31.1658C100.738 31.3251 100.849 31.4386 101.059 31.506C101.268 31.5734 101.639 31.6481 102.17 31.7302C102.518 31.7856 102.664 31.8103 102.61 31.8043C103.306 31.9256 103.85 32.0817 104.241 32.2724C104.633 32.4631 104.916 32.7061 105.092 33.0013C105.277 33.2849 105.39 33.6605 105.431 34.1281C105.495 34.8613 105.227 35.4735 104.627 35.9648C104.038 36.4445 103.142 36.7367 101.941 36.8414ZM109.435 36.188C108.489 36.2705 107.75 36.0727 107.215 35.5946C106.691 35.105 106.389 34.4033 106.309 33.4894L106.048 30.4928L104.964 30.5873L104.794 28.6426L105.878 28.5481L105.678 26.2528L108.483 26.0082L108.684 28.3035L110.437 28.1507L110.606 30.0953L108.853 30.2482L109.081 32.8622C109.117 33.2767 109.217 33.5677 109.382 33.7354C109.557 33.9021 109.841 33.9684 110.234 33.9341C110.585 33.9035 110.927 33.7773 111.261 33.5555L111.444 35.6435C111.178 35.7951 110.889 35.9114 110.575 35.9923C110.272 36.083 109.892 36.1482 109.435 36.188ZM117.61 26.4974C117.185 26.5344 116.817 26.4273 116.506 26.176C116.195 25.9248 116.021 25.5866 115.984 25.1616C115.947 24.7471 116.061 24.3893 116.324 24.088C116.586 23.776 116.929 23.6015 117.354 23.5645C117.768 23.5284 118.132 23.6412 118.444 23.9031C118.765 24.1535 118.944 24.4859 118.98 24.9003C119.016 25.3147 118.898 25.6784 118.626 25.9912C118.363 26.2925 118.024 26.4612 117.61 26.4974ZM116.296 27.6398L119.101 27.3952L119.768 35.0462L116.963 35.2908L116.296 27.6398ZM120.238 27.2961L122.948 27.0598L123.022 27.9046C123.319 27.5146 123.694 27.2089 124.146 26.9874C124.598 26.766 125.079 26.6331 125.589 26.5886C126.662 26.495 127.478 26.7076 128.038 27.2263C128.606 27.7335 128.933 28.4653 129.016 29.4216L129.433 34.2035L126.628 34.4481L126.243 30.0329C126.168 29.1721 125.737 28.776 124.951 28.8446C124.589 28.8761 124.267 28.9898 123.985 29.1858C123.701 29.3711 123.473 29.6426 123.301 30.0003L123.711 34.7024L120.905 34.947L120.238 27.2961ZM138.507 33.6532C137.455 33.745 136.638 33.5218 136.055 32.9836C135.484 32.4446 135.156 31.6969 135.073 30.7405L134.663 26.0384L137.468 25.7938L137.85 30.1771C137.927 31.0591 138.364 31.4654 139.161 31.3959C139.523 31.3644 139.845 31.2506 140.127 31.0547C140.41 30.8587 140.633 30.5877 140.795 30.2416L140.385 25.5394L143.19 25.2948L143.858 32.9458L141.148 33.1821L141.076 32.3532C140.777 32.7326 140.401 33.033 139.95 33.2544C139.498 33.4758 139.017 33.6088 138.507 33.6532ZM148.216 32.8067C147.6 32.8604 146.951 32.8527 146.271 32.7836C145.591 32.7251 145.045 32.6014 144.632 32.4125L144.453 30.3563C144.911 30.5733 145.45 30.7405 146.07 30.8577C146.701 30.9633 147.271 30.9939 147.781 30.9495C148.153 30.917 148.421 30.8668 148.587 30.7989C148.752 30.7309 148.828 30.6172 148.814 30.4579C148.803 30.3303 148.736 30.2345 148.612 30.1703C148.499 30.0945 148.289 30.0271 147.984 29.9681C147.689 29.8974 147.346 29.8257 146.954 29.7528C146.289 29.618 145.762 29.4659 145.372 29.2964C144.983 29.127 144.684 28.896 144.477 28.6036C144.269 28.3112 144.145 27.9312 144.104 27.4636C144.032 26.6348 144.302 25.9902 144.915 25.5299C145.538 25.058 146.418 24.7725 147.555 24.6734C148.107 24.6252 148.692 24.6331 149.308 24.6972C149.934 24.7604 150.41 24.8741 150.735 25.0385L150.911 27.0629C150.574 26.8781 150.133 26.7399 149.59 26.648C149.057 26.5553 148.563 26.5289 148.106 26.5687C147.744 26.6002 147.466 26.6619 147.271 26.7539C147.074 26.8353 146.983 26.961 146.998 27.131C147.012 27.2904 147.124 27.4038 147.333 27.4712C147.542 27.5386 147.913 27.6134 148.445 27.6955C148.792 27.7509 148.939 27.7755 148.885 27.7695C149.581 27.8909 150.124 28.0469 150.516 28.2377C150.907 28.4284 151.191 28.6713 151.366 28.9665C151.552 29.2502 151.665 29.6258 151.705 30.0933C151.769 30.8266 151.501 31.4388 150.902 31.9301C150.312 32.4098 149.417 32.702 148.216 32.8067Z" fill="white"/>
</svg>
