<svg width="162" height="36" viewBox="0 0 162 36" fill="none" xmlns="http://www.w3.org/2000/svg">
<path d="M14.6139 20.4486C19.0952 17.0344 23.5766 13.6428 28.0379 10.1949C29.6811 8.92159 31.2147 7.47932 32.8379 6.18353C35.1483 4.35815 37.6478 3.74969 40.247 5.27084C42.8661 6.80326 43.7723 9.50754 43.7823 12.6851C43.7823 13.3837 43.7823 14.0935 44.3499 15.1301C45.4254 13.1245 46.7499 11.2428 47.5366 9.10191C49.6578 3.36661 53.3922 1.6314 58.7299 1.58633C85.8667 1.36097 113.004 0.808841 140.14 0.380665C144.482 0.313059 148.824 0.234154 153.166 0.279225C154.6 0.290493 156.064 0.527146 157.448 0.944054C160.087 1.7328 161.83 4.23424 161.989 7.14133C162.139 10.0484 160.725 12.7752 158.115 13.8569C156.442 14.5442 154.61 14.9611 152.827 15.0513C141.445 15.6372 130.062 16.3471 118.67 16.5386C99.8584 16.8541 81.0369 16.8767 62.2154 16.8541C59.5764 16.8541 57.8337 17.733 56.2602 20.0767C54.0793 23.3331 51.6694 26.4092 49.2395 29.429C48.0943 30.8487 46.7599 32.1558 45.3358 33.215C41.0537 36.37 36.2537 35.029 33.7242 29.9923C32.8479 28.2458 32.2902 26.2965 31.5234 24.2796C28.6653 26.2514 26.0064 28.4149 23.1085 30.0036C19.2247 32.1332 15.2811 34.4206 11.1285 35.5586C3.09198 37.7671 -1.99681 31.4121 0.751728 22.6458C2.73346 16.3133 5.51187 10.2963 8.00149 4.16662C8.36995 3.2652 8.99736 2.44264 9.64466 1.7553C11.4073 -0.126417 13.4986 -0.520792 15.6596 0.696127C17.7508 1.87924 18.677 4.06524 18.2587 6.58922C17.9002 8.7639 17.0936 10.8709 16.3865 12.9555C15.6197 15.2203 14.7334 17.4401 13.9069 19.6711C14.1459 19.9303 14.3749 20.1894 14.6139 20.4486Z" fill="#0CAD8E"/>
</svg>
