<svg width="94" height="129" viewBox="0 0 94 129" fill="none" xmlns="http://www.w3.org/2000/svg">
<path d="M-18.6015 88.602C-19.026 76.6681 -19.2951 64.7239 -19.9059 52.8004C-20.6098 38.8154 -17.5456 34.3091 -4.56426 29.1605C18.5931 19.9718 41.6366 10.4828 64.7007 1.05583C70.1355 -1.16106 73.3239 0.0302575 75.6945 5.41708C75.9637 6.02827 76.5744 6.67055 77.1748 6.91917C82.62 9.11534 85.0734 13.5387 85.6842 18.9566C86.4088 25.4001 86.3467 31.9368 87.1645 38.3699C88.8001 51.2465 90.8188 64.0713 92.6614 76.9168C94.2245 87.8147 91.3985 93.5952 80.9533 97.0034C59.3074 104.058 38.8829 113.775 18.6552 124.02C12.8684 126.952 6.92641 129.583 0.963682 132.142C-1.41727 133.168 -4.00525 134.048 -6.56219 134.286C-12.6181 134.856 -17.8148 131.075 -19.2227 124.932C-19.9473 121.772 -20.0405 118.406 -19.968 115.132C-19.7713 106.285 -19.3261 97.4488 -18.9742 88.6124C-18.85 88.6124 -18.7258 88.602 -18.6015 88.602ZM62.0714 17.7342C61.2432 18.0243 60.5289 18.1901 59.887 18.5008C40.8601 27.9381 21.8436 37.3961 2.80633 46.8127C1.37776 47.5172 0.942978 48.3873 1.22248 49.9309C1.65726 52.3342 2.13346 54.7686 2.16451 57.2031C2.42331 73.5603 2.55789 89.9073 2.74422 106.265C2.75457 107.383 2.74422 108.492 2.74422 109.973C3.89329 109.631 4.78356 109.445 5.62207 109.103C12.5889 106.275 19.6904 103.737 26.4606 100.505C39.6386 94.2167 53.1479 88.8817 66.9988 84.2718C76.8643 80.9879 75.9016 82.9251 73.3136 72.773C68.7173 54.665 62.9202 36.8367 62.0714 17.7342Z" fill="#0CAD8E"/>
<path d="M58.3446 147.534C51.1604 147.606 47.2887 141.308 50.1873 135.838C50.6635 134.937 51.2329 133.88 52.0507 133.414C59.1107 129.405 66.119 125.272 73.4068 121.698C76.4295 120.216 79.6697 121.76 81.3778 124.194C83.0341 126.566 82.9927 129.55 81.0776 132.368C80.1874 133.673 79.2246 135.082 77.9617 135.962C73.0341 139.381 68.0444 142.717 62.9409 145.866C61.3157 146.85 59.297 147.202 58.3446 147.534Z" fill="black"/>
<path d="M33.7793 87.5977C32.6613 87.1316 30.1147 86.624 28.2824 85.2047C22.5784 80.771 17.0608 76.0782 11.6468 71.2922C9.21404 69.1479 7.59912 66.3405 7.61983 62.8909C7.64053 57.7009 12.4335 53.7022 16.978 56.0227C25.3838 60.3218 33.5412 65.201 41.3776 70.4842C45.2389 73.0844 45.7875 78.1086 44.0898 81.983C42.537 85.4844 39.0484 87.6702 33.7793 87.5977Z" fill="#F2AE2F"/>
</svg>
